<?xml version="1.0" encoding="UTF-8" standalone="no"?>
<!-- Created with Inkscape (http://www.inkscape.org/) -->

<svg
   width="100mm"
   height="100mm"
   viewBox="0 0 100 100"
   version="1.1"
   id="svg1"
   inkscape:version="1.3 (0e150ed6c4, 2023-07-21)"
   sodipodi:docname="cross.svg"
   xmlns:inkscape="http://www.inkscape.org/namespaces/inkscape"
   xmlns:sodipodi="http://sodipodi.sourceforge.net/DTD/sodipodi-0.dtd"
   xmlns="http://www.w3.org/2000/svg"
   xmlns:svg="http://www.w3.org/2000/svg">
  <sodipodi:namedview
     id="namedview1"
     pagecolor="#ffffff"
     bordercolor="#000000"
     borderopacity="0.25"
     inkscape:showpageshadow="2"
     inkscape:pageopacity="0.0"
     inkscape:pagecheckerboard="0"
     inkscape:deskcolor="#d1d1d1"
     inkscape:document-units="mm"
     inkscape:zoom="0.76702441"
     inkscape:cx="396.3368"
     inkscape:cy="352.66153"
     inkscape:window-width="1920"
     inkscape:window-height="1057"
     inkscape:window-x="-8"
     inkscape:window-y="-8"
     inkscape:window-maximized="1"
     inkscape:current-layer="layer1" />
  <defs
     id="defs1" />
  <g
     inkscape:label="Layer 1"
     inkscape:groupmode="layer"
     id="layer1">
    <path
       style="opacity:0.8;fill:none;stroke-width:2.64583;stroke:#000000;stroke-opacity:1"
       d="m 11.383275,16.557491 c 3.063628,3.153567 5.093789,6.992058 7.933798,10.348432 1.458027,1.723123 3.411383,2.964151 5.174216,4.139372 0.09567,0.06378 0.229965,0 0.344948,0 0.344947,0.229965 0.741694,0.396748 1.034843,0.689896 0.181803,0.181803 0.163144,0.508092 0.344948,0.689896 0.520604,0.520604 1.204132,0.859184 1.724739,1.379791 0.406524,0.406524 0.605147,0.997839 1.034844,1.379792 0.619715,0.550857 1.406363,0.882298 2.069684,1.379788 1.399773,1.04983 2.723121,2.437869 4.139375,3.449479 0.418435,0.298884 0.968414,0.381365 1.379788,0.689896 0.520354,0.390263 0.838595,1.018992 1.379792,1.379791 0.191344,0.127561 0.471731,-0.07272 0.689896,0 1.347052,0.449017 2.543918,2.064854 3.794426,2.759581 3.270234,1.816798 7.042494,2.805424 10.003483,5.174215 2.434802,1.947844 3.276185,4.526415 5.174216,6.898955 1.68244,2.103051 3.438202,4.125841 5.174215,6.209059 0.265406,0.318487 0.45993,0.689896 0.689896,1.034843 0.344948,0.459931 0.660696,0.943285 1.034843,1.379792 1.874954,2.187445 5.195877,3.923847 7.588851,5.519163 0.427855,0.285237 1.016185,0.32629 1.379791,0.689896 0.0813,0.0813 -0.102843,0.293526 0,0.344948 0.205687,0.102843 0.471731,-0.07272 0.689896,0 0.378087,0.126029 1.384472,0.779645 1.724737,1.034843 0.793205,0.594903 3.73099,3.80831 4.139374,4.829268 0.08541,0.213519 -0.102843,0.484209 0,0.689896 0.145442,0.290885 0.494763,0.42972 0.689896,0.689896 0.747993,0.997325 1.171824,2.206667 2.069685,3.104528"
       id="path1" />
    <path
       style="opacity:0.8;fill:none;stroke:#000000;stroke-width:2.64583;stroke-opacity:1"
       d="m 9.6585364,87.616725 c 0.3449476,-0.689896 0.5328706,-1.484053 1.0348436,-2.069687 2.393615,-2.570922 12.78866,-13.640636 15.867595,-17.247386 2.658349,-3.114066 5.390661,-6.204238 7.588851,-9.658538 0.995386,-1.564179 1.715132,-3.297412 2.75958,-4.829267 0.688557,-1.009883 1.651082,-1.805141 2.414635,-2.759583 2.46529,-3.081613 1.588006,-2.907586 4.829268,-6.554007 -0.321876,-2.682248 2.17751,-1.487615 3.104531,-2.414633 1.085635,-1.085638 1.84159,-2.502273 3.104528,-3.449478 1.390975,-1.043231 2.796807,-2.030476 4.139374,-3.104529 1.615081,-1.292066 2.932618,-3.171343 4.48432,-4.484322 1.79905,-1.522272 4.255611,-2.492126 6.209059,-3.794424 0.4059,-0.2706 0.598514,-0.816679 1.034844,-1.034843 0.102843,-0.05142 0.229965,0 0.344948,0 0.45993,-0.459931 0.817954,-1.052054 1.379791,-1.379791 0.848585,-0.495009 1.861841,-0.635848 2.75958,-1.034843 0.697532,-0.310015 1.06094,-1.326459 1.72474,-1.724739 2.050502,-1.230301 0.846235,-0.111671 3.104528,-1.724739 0.374227,-0.267303 1.379791,-0.948517 1.379791,-1.379791"
       id="path2" />
  </g>
</svg>
