<svg xmlns:inkscape="http://www.inkscape.org/namespaces/inkscape" xmlns:sodipodi="http://sodipodi.sourceforge.net/DTD/sodipodi-0.dtd" xmlns="http://www.w3.org/2000/svg" xmlns:svg="http://www.w3.org/2000/svg" width="100mm" height="100mm" viewBox="0 0 100 100" version="1.1" id="svg1" inkscape:version="1.3 (0e150ed6c4, 2023-07-21)" sodipodi:docname="nought.svg">
  <sodipodi:namedview id="namedview1" pagecolor="#ffffff" bordercolor="#000000" borderopacity="0.25" inkscape:showpageshadow="2" inkscape:pageopacity="0.0" inkscape:pagecheckerboard="0" inkscape:deskcolor="#d1d1d1" inkscape:document-units="mm" inkscape:zoom="0.76702441" inkscape:cx="396.3368" inkscape:cy="352.66153" inkscape:window-width="1920" inkscape:window-height="1057" inkscape:window-x="-8" inkscape:window-y="-8" inkscape:window-maximized="1" inkscape:current-layer="layer1"/>
  <defs id="defs1"/>
  <g inkscape:label="Layer 1" inkscape:groupmode="layer" id="layer1">
    <path style="opacity:0.8;fill:none;stroke:#000000;stroke-width:2.64583" d="M 55.3125 15.7166 C 54.6226 15.7166 53.0137 14.6229 53.0137 15.3128 C 53.0137 16.0027 55.6864 14.3195 54.9965 14.3195 C 53.4035 14.3195 43.7972 14.9429 41.4385 14.5498 C 40.3402 14.3667 35.6838 14.8842 34.8072 15.3225 C 33.8581 15.797 32.9721 16.548 31.8407 16.8308 C 30.6316 17.1331 29.918 16.0377 28.691 16.4467 C 28.5367 16.4982 28.4045 17.5149 28.2451 17.5468 C 27.7941 17.637 26.3871 18.3797 25.9449 18.506 C 25.5463 18.6199 25.0663 17.9096 24.6853 18.0729 C 24.2495 18.2596 23.8231 19.1848 23.3792 19.3512 C 21.5342 20.0431 20.9224 20.9093 19.7981 22.5957 C 19.7358 22.689 18.6418 27.3287 18.6238 27.4188 C 18.491 28.083 17.7908 27.9468 17.6262 28.6051 C 17.2805 29.9882 17.0769 32.3552 16.7354 33.7212 C 16.6518 34.0558 17.119 34.2271 17.0099 34.5543 C 16.3659 36.4862 15.3844 39.0833 14.5282 40.7956 C 14.1463 41.5595 14.1293 44.1516 14.1293 44.8124 C 14.1293 46.7291 14.1132 49.1109 14.5525 50.8681 C 14.8275 51.9682 14.9316 53.473 14.9316 54.7003 C 14.9316 59.0301 13.4834 69.3716 15.6453 72.6145 C 15.7856 72.8248 17.7279 76.3156 17.859 76.4092 C 18.4866 76.8576 19.6534 76.9733 20.3182 77.3643 C 21.6104 78.1244 23.3279 78.9558 24.6689 79.6262 C 27.3029 80.9432 30.0496 82.3486 32.8592 83.1514 C 34.3753 83.5846 35.3348 83.6557 36.8636 84.0925 C 37.8829 84.3838 40.0836 85.0687 41.099 85.3733 C 43.4894 86.0905 41.5913 86.4462 44.4506 86.9227 C 45.358 87.0739 47.6692 86.9187 48.5537 87.1714 C 49.0481 87.3127 48.101 88.1339 48.5888 88.2965 C 49.3132 88.5379 50.5644 86.6137 51.3138 86.7803 C 52.1309 86.9619 52.2635 87.5049 53.0807 87.6865 C 55.0006 88.1131 59.4294 88.2083 61.4977 88.2083 C 63.8721 88.2083 65.6519 88.7528 68.0337 88.5827 C 68.8365 88.5254 69.1124 88.8197 69.9016 88.6618 C 70.5943 88.741 70.5442 87.1022 71.1449 86.9521 C 73.7712 86.2955 76.6327 85.2138 79.2388 84.2939 C 80.0646 84.0025 82.1226 84.0927 82.9596 83.8351 C 83.6281 83.6294 82.9682 83.9923 83.6317 83.7712 C 84.025 83.6401 85.6009 83.4871 85.9608 83.2814 C 86.8538 82.7711 86.4529 83.3505 87.2215 82.6672 C 89.1346 80.9667 90.7319 75.3645 91.8363 73.7078 C 94.2305 70.1166 93.0181 77.1959 95.5205 72.191 C 97.3533 68.5254 95.8501 63.705 95.8501 59.7356 C 95.8501 58.2076 96.5444 56.5181 96.316 55.0332 C 96.2054 54.3144 95.1421 54.4139 94.9507 53.7123 C 94.7965 53.1467 95.5902 51.8568 95.3898 51.3058 C 95.1262 50.5809 95.282 49.8219 95.0552 49.0847 C 94.8161 48.3076 93.9245 48.2821 93.715 47.4965 C 93.3682 46.1961 92.5622 43.771 92.1755 42.4819 C 91.6858 40.8497 90.9239 38.3654 90.2758 36.8531 C 90.0116 36.2369 90.7423 35.7615 90.4425 35.1619 C 88.8658 32.0086 89.8264 34.8277 88.2165 31.2858 C 87.3292 29.3338 86.3015 27.8922 84.8516 26.2811 C 84.1989 25.5559 83.0444 24.8648 82.4198 24.1153 C 81.8563 23.4391 80.9431 22.0241 80.1979 21.2789 C 79.6773 20.7583 78.9217 19.5474 78.4011 19.0268 C 78.2193 18.845 77.7415 18.6922 77.5597 18.5104 C 76.6681 17.6188 74.692 16.9478 73.5535 16.8213 C 70.8987 16.5263 67.0841 16.996 64.4142 16.996 C 63.7168 16.996 62.8006 17.3526 62.0074 16.956 C 59.7216 15.8131 58.2948 14.3712 54.8105 14.1032 Z" id="path1"/>
  </g>
</svg>