<svg xmlns:inkscape="http://www.inkscape.org/namespaces/inkscape" xmlns:sodipodi="http://sodipodi.sourceforge.net/DTD/sodipodi-0.dtd" xmlns="http://www.w3.org/2000/svg" xmlns:svg="http://www.w3.org/2000/svg" width="100mm" height="100mm" viewBox="0 0 100 100" version="1.1" id="svg1" inkscape:version="1.3 (0e150ed6c4, 2023-07-21)" sodipodi:docname="nought.svg">
  <sodipodi:namedview id="namedview1" pagecolor="#ffffff" bordercolor="#000000" borderopacity="0.25" inkscape:showpageshadow="2" inkscape:pageopacity="0.0" inkscape:pagecheckerboard="0" inkscape:deskcolor="#d1d1d1" inkscape:document-units="mm" inkscape:zoom="0.76702441" inkscape:cx="396.3368" inkscape:cy="352.66153" inkscape:window-width="1920" inkscape:window-height="1057" inkscape:window-x="-8" inkscape:window-y="-8" inkscape:window-maximized="1" inkscape:current-layer="layer1"/>
  <defs id="defs1"/>
  <g inkscape:label="Layer 1" inkscape:groupmode="layer" id="layer1">
    <path style="opacity:0.8;fill:none;stroke:#000000;stroke-width:2.64583" d="m 54.501742,14.832752 c -0.689895,0 -2.069687,-0.689895 -2.069687,0 0,0.689896 2.759583,0 2.069687,0 -1.593032,0 -9.714544,0.393105 -12.07317,0 -1.098388,-0.183064 -6.367301,-0.783249 -7.243902,-0.344947 -0.949098,0.474548 -1.973154,1.441894 -3.104531,1.724738 -1.209114,0.302279 -2.567385,0.62583 -3.794424,1.034844 -0.154266,0.05142 -0.185497,0.313057 -0.344948,0.344947 -0.451001,0.0902 -0.937556,-0.126352 -1.379792,0 -0.398624,0.113893 -0.653788,0.526586 -1.034843,0.689896 -0.435753,0.186751 -0.935891,0.178485 -1.379791,0.344948 -1.845073,0.691902 -3.704973,2.107983 -4.829268,3.794425 -0.06222,0.09333 -1.361781,4.394269 -1.379791,4.48432 -0.132849,0.664245 0.16457,1.411407 0,2.069688 -0.345774,1.383096 -1.038302,2.773415 -1.379791,4.139371 -0.08366,0.334648 0.109082,0.707597 0,1.034844 -0.643943,1.931829 -1.213542,4.151823 -2.069686,5.864111 -0.381973,0.763945 0,3.823589 0,4.48432 0,1.916716 -0.439283,4.796874 0,6.554007 0.275046,1.100185 0.344947,1.877197 0.344947,3.104531 0,4.329765 -1.472001,15.72928 0.689896,18.972124 0.140255,0.210381 2.973511,3.700841 3.10453,3.794424 0.627654,0.448326 1.404853,0.643766 2.069686,1.034844 1.292203,0.760119 2.453509,1.744176 3.794425,2.414635 2.633995,1.316998 5.814054,1.956827 8.623693,2.75958 1.516108,0.433176 2.955558,1.28795 4.48432,1.72474 1.019299,0.291229 2.08915,0.385281 3.104531,0.689896 2.390441,0.717131 1.28011,0.903247 4.139372,1.379791 0.907346,0.151223 1.875115,-0.252706 2.759583,0 0.494432,0.141266 0.89196,0.527285 1.379791,0.689896 0.72439,0.241461 1.665264,-0.166529 2.414633,0 0.817152,0.181589 1.597482,0.508304 2.414635,0.689895 1.919922,0.426649 4.830685,0 6.898954,0 2.374421,0 4.517155,-0.17482 6.898955,-0.344947 0.802831,-0.05735 1.625386,0.157847 2.414633,0 0.692705,0.07916 1.124026,-0.539719 1.724739,-0.689896 2.626307,-0.656577 5.327655,-1.149871 7.933798,-2.069687 0.82576,-0.291444 1.577676,-0.777317 2.414633,-1.034844 0.668483,-0.205687 1.406168,-0.123775 2.069687,-0.344948 0.393301,-0.131101 0.674891,-0.484208 1.034844,-0.689896 0.892931,-0.510246 1.99092,-0.696534 2.759583,-1.379788 1.913101,-1.700538 3.724804,-5.587209 4.829267,-7.243903 2.394138,-3.591208 -0.432747,2.245283 2.069687,-2.759583 1.832819,-3.665641 1.379789,-7.758816 1.379789,-11.728222 0,-1.527961 0.228457,-3.34431 0,-4.829268 -0.110577,-0.718759 -0.498551,-1.368097 -0.689896,-2.069687 -0.154265,-0.56564 -0.144584,-1.173739 -0.344947,-1.724739 -0.263594,-0.724887 -0.808006,-1.332469 -1.034841,-2.069688 -0.239107,-0.777094 -0.135456,-1.629037 -0.344948,-2.414632 -0.346774,-1.300395 -0.993069,-2.505348 -1.379792,-3.794427 -0.489651,-1.632169 -1.076634,-4.006918 -1.724739,-5.519163 -0.264107,-0.616246 -0.735005,-1.125061 -1.034844,-1.724737 -1.576633,-3.153269 0.230143,-0.252574 -1.379789,-3.794426 -0.887285,-1.952025 -2.344472,-4.25305 -3.794426,-5.864111 -0.652682,-0.725202 -1.445085,-1.320164 -2.069687,-2.069687 -0.563465,-0.676159 -1.669439,-2.704283 -2.414633,-3.449477 -0.520607,-0.520606 -1.204134,-0.859185 -1.724739,-1.379791 -0.181803,-0.181804 -0.163145,-0.508092 -0.344948,-0.689895 -0.891611,-0.891612 -3.345847,-2.288138 -4.48432,-2.414635 -2.654821,-0.29498 -5.608793,0 -8.278746,0 -0.697389,0 -3.346206,0.396583 -4.139372,0 -2.285817,-1.142908 -3.069751,-1.111771 -6.554007,-1.379791 z" id="path1"/>
  </g>
</svg>