<svg xmlns:inkscape="http://www.inkscape.org/namespaces/inkscape" xmlns:sodipodi="http://sodipodi.sourceforge.net/DTD/sodipodi-0.dtd" xmlns="http://www.w3.org/2000/svg" xmlns:svg="http://www.w3.org/2000/svg" width="100mm" height="100mm" viewBox="0 0 100 100" version="1.1" id="svg1" inkscape:version="1.3 (0e150ed6c4, 2023-07-21)" sodipodi:docname="cross.svg">
  <sodipodi:namedview id="namedview1" pagecolor="#ffffff" bordercolor="#000000" borderopacity="0.25" inkscape:showpageshadow="2" inkscape:pageopacity="0.0" inkscape:pagecheckerboard="0" inkscape:deskcolor="#d1d1d1" inkscape:document-units="mm" inkscape:zoom="0.76702441" inkscape:cx="396.3368" inkscape:cy="352.66153" inkscape:window-width="1920" inkscape:window-height="1057" inkscape:window-x="-8" inkscape:window-y="-8" inkscape:window-maximized="1" inkscape:current-layer="layer1"/>
  <defs id="defs1"/>
  <g inkscape:label="Layer 1" inkscape:groupmode="layer" id="layer1">
    <path style="opacity:0.8;fill:none;stroke-width:2.64583;stroke:#000000;stroke-opacity:1" d="M 11.7615 17.0657 C 14.8251 20.2193 16.7674 22.6641 19.6074 26.0205 C 21.0654 27.7436 21.7805 29.1398 23.5433 30.315 C 23.639 30.3788 24.3563 30.5146 24.4713 30.5146 C 24.8163 30.7446 25.8736 31.083 26.1667 31.3761 C 26.3485 31.5579 26.0357 32.8283 26.2176 33.0101 C 26.7382 33.5307 27.5632 33.8645 28.0838 34.3851 C 28.4903 34.7916 28.2991 33.9183 28.7288 34.3002 C 29.3486 34.8511 29.7644 36.2385 30.4277 36.736 C 31.8275 37.7858 34.7316 38.0133 36.1479 39.0249 C 36.5663 39.3238 36.3703 39.5232 36.7817 39.8317 C 37.302 40.222 38.3607 42.0923 38.9019 42.4531 C 39.0932 42.5807 37.4629 41.3767 37.6811 41.4494 C 39.0281 41.8984 42.0724 45.065 43.3229 45.7598 C 46.5932 47.5765 49.6559 48.5704 52.6168 50.9392 C 55.0516 52.8871 55.5661 55.1523 57.4642 57.5249 C 59.1466 59.6279 61.1871 60.4501 62.9231 62.5333 C 63.1885 62.8518 62.3116 64.2738 62.5415 64.6187 C 62.8865 65.0786 63.7917 64.9208 64.1658 65.3573 C 66.0408 67.5447 69.0194 70.0941 71.4124 71.6894 C 71.8402 71.9746 73.5237 71.0277 73.8873 71.3913 C 73.9686 71.4726 73.8105 72.8277 73.9134 72.8791 C 74.1191 72.9819 73.9097 71.3878 74.1279 71.4605 C 74.506 71.5865 74.8734 72.8846 75.2137 73.1398 C 76.0069 73.7347 80.3633 76.9768 80.7717 77.9978 C 80.8571 78.2113 80.3494 78.4662 80.4522 78.6719 C 80.5977 78.9628 80.3658 78.4449 80.5609 78.7051 C 81.3089 79.7024 81.4945 81.3441 82.3924 82.242" id="path1"/>
    <path style="opacity:0.8;fill:none;stroke:#000000;stroke-width:2.64583;stroke-opacity:1" d="M 9.00925 87.1365 C 9.35419 86.4466 9.67223 86.6637 10.1742 86.0781 C 12.5678 83.5072 24.4495 72.3186 27.5284 68.7119 C 30.1868 65.5978 31.6375 61.577 33.8356 58.1227 C 34.831 56.5585 35.0163 55.8561 36.0608 54.3242 C 36.7493 53.3143 38.7576 52.4731 39.5211 51.5186 C 41.9864 48.437 40.6757 47.8792 43.917 44.2328 C 43.5951 41.5506 45.9492 43.8058 46.8762 42.8788 C 47.9618 41.7932 48.8274 40.3516 50.0903 39.4044 C 51.4813 38.3611 52.5459 36.4717 53.8884 35.3977 C 55.5035 34.1056 56.6713 33.1423 58.223 31.8294 C 60.022 30.3071 62.497 27.6164 64.4505 26.3141 C 64.8564 26.0435 66.4824 26.2582 66.9187 26.0401 C 67.0216 25.9887 67.1382 25.9527 67.2532 25.9527 C 67.7131 25.4928 66.7887 24.8514 67.3506 24.5237 C 68.1991 24.0287 70.0735 23.3246 70.9712 22.9256 C 71.6687 22.6156 72.1219 21.7332 72.7857 21.3349 C 74.8362 20.1046 72.456 22.6824 74.7143 21.0694 C 75.0885 20.8021 75.9622 18.4837 75.9622 18.0524" id="path2"/>
  </g>
</svg>