<svg xmlns:inkscape="http://www.inkscape.org/namespaces/inkscape" xmlns:sodipodi="http://sodipodi.sourceforge.net/DTD/sodipodi-0.dtd" xmlns="http://www.w3.org/2000/svg" xmlns:svg="http://www.w3.org/2000/svg" width="100mm" height="100mm" viewBox="0 0 100 100" version="1.1" id="svg1" inkscape:version="1.3 (0e150ed6c4, 2023-07-21)" sodipodi:docname="cross.svg">
  <sodipodi:namedview id="namedview1" pagecolor="#ffffff" bordercolor="#000000" borderopacity="0.25" inkscape:showpageshadow="2" inkscape:pageopacity="0.0" inkscape:pagecheckerboard="0" inkscape:deskcolor="#d1d1d1" inkscape:document-units="mm" inkscape:zoom="0.76702441" inkscape:cx="396.3368" inkscape:cy="352.66153" inkscape:window-width="1920" inkscape:window-height="1057" inkscape:window-x="-8" inkscape:window-y="-8" inkscape:window-maximized="1" inkscape:current-layer="layer1"/>
  <defs id="defs1"/>
  <g inkscape:label="Layer 1" inkscape:groupmode="layer" id="layer1">
    <path style="opacity:0.8;fill:none;stroke-width:2.64583;stroke:#000000;stroke-opacity:1" d="M 11.1184 17.2025 C 14.182 20.3561 15.7271 22.9316 18.5671 26.2879 C 20.0251 28.0111 22.2966 29.6334 24.0594 30.8086 C 24.1551 30.8724 25.564 30.144 25.679 30.144 C 26.024 30.374 26.5238 31.7397 26.8169 32.0328 C 26.9987 32.2146 26.393 32.607 26.5748 32.7888 C 27.0954 33.3094 27.1972 32.9113 27.7178 33.4319 C 28.1243 33.8384 27.8788 35.6529 28.3085 36.0349 C 28.9282 36.5857 29.8183 36.591 30.4816 37.0885 C 31.8814 38.1384 33.5187 38.8802 34.935 39.8918 C 35.3534 40.1907 35.4173 41.0581 35.8286 41.3666 C 36.349 41.7569 38.03 42.0711 38.5712 42.4319 C 38.7626 42.5595 38.546 41.5895 38.7641 41.6622 C 40.1112 42.1113 41.6885 44.7399 42.939 45.4346 C 46.2092 47.2514 48.7317 46.9132 51.6927 49.282 C 54.1275 51.2299 55.5242 54.0991 57.4223 56.4717 C 59.1047 58.5747 61.5558 60.1249 63.2918 62.2081 C 63.5572 62.5266 63.8939 64.6398 64.1239 64.9847 C 64.4688 65.4446 63.5785 65.5268 63.9527 65.9633 C 65.8276 68.1508 69.9511 68.6419 72.3441 70.2373 C 72.772 70.5225 72.6365 70.5028 73.0001 70.8664 C 73.0814 70.9477 73.861 72.8246 73.9638 72.876 C 74.1695 72.9788 73.0694 72.5969 73.2875 72.6696 C 73.6656 72.7956 76.5403 71.9697 76.8806 72.2249 C 77.6738 72.8198 79.1774 76.912 79.5858 77.9329 C 79.6712 78.1465 79.9718 78.1038 80.0747 78.3095 C 80.2201 78.6004 81.307 79.6509 81.5021 79.9111 C 82.2501 80.9084 81.3738 82.1474 82.2717 83.0452" id="path1"/>
    <path style="opacity:0.8;fill:none;stroke:#000000;stroke-width:2.64583;stroke-opacity:1" d="m 9.6585364,87.616725 c 0.3449476,-0.689896 0.5328706,-1.484053 1.0348436,-2.069687 2.393615,-2.570922 12.78866,-13.640636 15.867595,-17.247386 2.658349,-3.114066 5.390661,-6.204238 7.588851,-9.658538 0.995386,-1.564179 1.715132,-3.297412 2.75958,-4.829267 0.688557,-1.009883 1.651082,-1.805141 2.414635,-2.759583 2.46529,-3.081613 1.588006,-2.907586 4.829268,-6.554007 -0.321876,-2.682248 2.17751,-1.487615 3.104531,-2.414633 1.085635,-1.085638 1.84159,-2.502273 3.104528,-3.449478 1.390975,-1.043231 2.796807,-2.030476 4.139374,-3.104529 1.615081,-1.292066 2.932618,-3.171343 4.48432,-4.484322 1.79905,-1.522272 4.255611,-2.492126 6.209059,-3.794424 0.4059,-0.2706 0.598514,-0.816679 1.034844,-1.034843 0.102843,-0.05142 0.229965,0 0.344948,0 0.45993,-0.459931 0.817954,-1.052054 1.379791,-1.379791 0.848585,-0.495009 1.861841,-0.635848 2.75958,-1.034843 0.697532,-0.310015 1.06094,-1.326459 1.72474,-1.724739 2.050502,-1.230301 0.846235,-0.111671 3.104528,-1.724739 0.374227,-0.267303 1.379791,-0.948517 1.379791,-1.379791" id="path2"/>
  </g>
</svg>