<svg xmlns:inkscape="http://www.inkscape.org/namespaces/inkscape" xmlns:sodipodi="http://sodipodi.sourceforge.net/DTD/sodipodi-0.dtd" xmlns="http://www.w3.org/2000/svg" xmlns:svg="http://www.w3.org/2000/svg" width="100mm" height="100mm" viewBox="0 0 100 100" version="1.1" id="svg1" inkscape:version="1.3 (0e150ed6c4, 2023-07-21)" sodipodi:docname="nought.svg">
  <sodipodi:namedview id="namedview1" pagecolor="#ffffff" bordercolor="#000000" borderopacity="0.25" inkscape:showpageshadow="2" inkscape:pageopacity="0.0" inkscape:pagecheckerboard="0" inkscape:deskcolor="#d1d1d1" inkscape:document-units="mm" inkscape:zoom="0.76702441" inkscape:cx="396.3368" inkscape:cy="352.66153" inkscape:window-width="1920" inkscape:window-height="1057" inkscape:window-x="-8" inkscape:window-y="-8" inkscape:window-maximized="1" inkscape:current-layer="layer1"/>
  <defs id="defs1"/>
  <g inkscape:label="Layer 1" inkscape:groupmode="layer" id="layer1">
    <path style="opacity:0.8;fill:none;stroke:#000000;stroke-width:2.64583" d="M 55.4215 13.9076 C 54.7316 13.9076 52.0773 14.298 52.0773 14.9879 C 52.0773 15.6778 54.4948 14.9296 53.8049 14.9296 C 52.2119 14.9296 45.6512 14.7004 43.2926 14.3072 C 42.1942 14.1242 36.2875 13.2446 35.4109 13.6829 C 34.4618 14.1574 33.5922 16.6602 32.4609 16.943 C 31.2517 17.2453 28.8199 15.8403 27.5928 16.2493 C 27.4386 16.3008 27.8866 17.9376 27.7271 17.9695 C 27.2761 18.0597 26.1759 18.3601 25.7337 18.4865 C 25.335 18.6004 25.7667 18.4722 25.3856 18.6356 C 24.9499 18.8223 25.0855 17.9794 24.6416 18.1459 C 22.7965 18.8378 20.4725 20.0017 19.3482 21.6882 C 19.286 21.7815 18.2968 27.8062 18.2788 27.8963 C 18.146 28.5605 18.5336 27.6795 18.369 28.3378 C 18.0233 29.7209 17.1761 31.2998 16.8347 32.6657 C 16.751 33.0004 16.8342 34.8121 16.7251 35.1394 C 16.0812 37.0712 14.7527 38.8129 13.8965 40.5251 C 13.5146 41.2891 14.1955 43.2286 14.1955 43.8893 C 14.1955 45.806 13.971 50.1296 14.4102 51.8868 C 14.6853 52.9869 15.0568 52.5085 15.0568 53.7358 C 15.0568 58.0656 12.3948 70.2939 14.5567 73.5367 C 14.697 73.7471 18.3853 76.9066 18.5163 77.0001 C 19.144 77.4485 20.7941 76.7867 21.4589 77.1778 C 22.7511 77.9379 23.6833 80.0671 25.0243 80.7376 C 27.6583 82.0546 29.6613 82.3211 32.4709 83.1238 C 33.987 83.557 35.8406 84.7502 37.3694 85.187 C 38.3887 85.4783 39.1468 84.6212 40.1622 84.9258 C 42.5526 85.643 41.8121 85.7621 44.6714 86.2386 C 45.5787 86.3898 47.0953 86.7265 47.9797 86.9792 C 48.4742 87.1205 49.3127 87.7806 49.8006 87.9432 C 50.5249 88.1847 50.7332 88.2898 51.4826 88.4564 C 52.2997 88.6379 52.309 88.9689 53.1261 89.1505 C 55.046 89.5771 58.8713 88.542 60.9396 88.542 C 63.314 88.542 64.8761 88.0012 67.2579 87.8311 C 68.0608 87.7737 68.8236 88.6818 69.6128 88.5239 C 70.3055 88.6031 70.2927 87.6678 70.8935 87.5176 C 73.5198 86.861 76.5198 86.5073 79.126 85.5875 C 79.9517 85.2961 82.1463 84.4637 82.9833 84.2062 C 83.6518 84.0005 83.9212 83.3959 84.5847 83.1747 C 84.978 83.0436 84.3256 82.8119 84.6856 82.6062 C 85.5785 82.096 87.3493 81.9578 88.118 81.2746 C 90.0311 79.574 92.2723 76.3756 93.3768 74.7189 C 95.7709 71.1277 91.4841 77.7235 93.9866 72.7186 C 95.8194 69.053 95.2899 64.2169 95.2899 60.2474 C 95.2899 58.7195 96.0444 57.2279 95.8159 55.7429 C 95.7053 55.0242 96.3069 54.5062 96.1155 53.8046 C 95.9612 53.239 95.8792 52.5172 95.6789 51.9662 C 95.4153 51.2413 95.3445 50.3221 95.1177 49.5849 C 94.8786 48.8078 93.972 48.3929 93.7626 47.6073 C 93.4158 46.3069 93.0703 45.1744 92.6836 43.8853 C 92.194 42.2531 91.4607 38.9767 90.8126 37.4645 C 90.5485 36.8482 89.4713 36.0926 89.1715 35.493 C 87.5948 32.3397 89.8095 36.5881 88.1996 33.0463 C 87.3123 31.0943 86.1183 27.9153 84.6684 26.3042 C 84.0157 25.579 83.5346 24.4634 82.91 23.7139 C 82.3466 23.0378 80.9776 22.2495 80.2325 21.5044 C 79.7118 20.9837 77.8629 19.9467 77.3423 19.4261 C 77.1605 19.2443 77.6556 18.7272 77.4738 18.5454 C 76.5821 17.6538 74.6875 15.5985 73.549 15.472 C 70.8942 15.1771 67.2195 15.7614 64.5495 15.7614 C 63.8521 15.7614 61.7378 16.7409 60.9446 16.3443 C 58.6588 15.2014 57.125 14.5947 53.6407 14.3267 Z" id="path1"/>
  </g>
</svg>